# xmcd CD database file
#
# Track frame offsets:
#	150
#	18293
#	40636
#	59379
#	74893
#	94041
#	113799
#	131166
#	151219
#	167984
#	190693
#	237416
#
# Disc length: 3563 seconds
#
# Revision: 0
# Processed by: cddbd v1.5.1PL2 Copyright (c) Steve Scherf et al.
# Submitted via: CDex 1.51
#
DISCID=a20de90c
DTITLE=Albert King - The Blues
DYEAR=2001
DGENRE=Blues
TTITLE0=I'm ready
TTITLE1=Nobody wants a looser
TTITLE2=Cold women with warm hearts
TTITLE3=Rub my back
TTITLE4=You upset me baby
TTITLE5=Cadillac assembly line
TTITLE6=Running out of steam
TTITLE7=Call my job
TTITLE8=Get out of my life woman
TTITLE9=The felling
TTITLE10=Blues at sunrise
TTITLE11=I'll play the blueues for you
EXTD=YEAR: 2001
EXTT0=
EXTT1=
EXTT2=
EXTT3=
EXTT4=
EXTT5=
EXTT6=
EXTT7=
EXTT8=
EXTT9=
EXTT10=
EXTT11=
PLAYORDER=
